<?xml version="1.0" encoding="utf-8"?>
<!-- Generator: Adobe Illustrator 25.4.1, SVG Export Plug-In . SVG Version: 6.00 Build 0)  -->
<svg version="1.0" id="katman_1" xmlns="http://www.w3.org/2000/svg" xmlns:xlink="http://www.w3.org/1999/xlink" x="0px" y="0px"
	 viewBox="0 0 1700 1200" style="enable-background:new 0 0 1700 1200;" xml:space="preserve">
<style type="text/css">
	.st0{fill:#1D1D1B;}
</style>
<g id="Page-1">
	<g id="Artboard">
		<g id="ArmorLogo-White">
			<path id="XMLID_39_" class="st0" d="M784.9,663.9h-26.8V536.2h27l51,60.8V320.5H182v559.2h654.1V632.9l-51.2-61.6V663.9z
				 M432.9,628.3l13.3-24.6h20.3l-24.7-44.6L384,663.9h-30.9l73.1-127.7h31.3l73.1,127.7h-30.9l-19.8-35.6H432.9z M678.8,663.9
				l-52.2-45.6v-25.2h40.5c13.9,0,20.9-5.4,20.9-16c0-10.6-7-16-20.9-16h-75.5v102.8h-26.8V536.2h101.4c40.6,0,49.2,22.3,49.2,40.9
				c0,33-26.5,40-48.8,40h-2.7l56.3,46.8L678.8,663.9L678.8,663.9z"/>
			<path id="XMLID_33_" class="st0" d="M915.6,571.3l-51.2,61.6v246.9h654.1V320.5H864.4V597l51-60.8h27v127.7h-26.8V571.3z
				 M1131.2,647.6c-15.1,12.5-37.3,19.1-64.1,19.1c-26.8,0-49.1-6.6-64.1-19.1c-14.2-11.7-21.7-28.2-21.7-47.5
				c0-19.3,7.5-35.7,21.7-47.5c15.1-12.5,37.3-19.1,64.1-19.1c26.8,0,49.1,6.6,64.1,19.1c14.2,11.7,21.7,28.2,21.7,47.5
				C1152.9,619.4,1145.4,635.8,1131.2,647.6z M1305.9,663.9l-52.2-45.6v-25.2h40.5c13.9,0,20.9-5.4,20.9-16c0-10.6-7-16-20.9-16
				h-75.5v102.8h-26.8V536.2h101.4c40.6,0,49.2,22.3,49.2,40.9c0,33-26.5,40-48.8,40h-2.7l56.3,46.8L1305.9,663.9L1305.9,663.9z"/>
			<path id="XMLID_29_" class="st0" d="M784.9,663.9h-26.8V536.2h27l51,60.8V320.5H182v559.2h654.1V632.9l-51.2-61.6V663.9z
				 M432.9,628.3l13.3-24.6h20.3l-24.7-44.6L384,663.9h-30.9l73.1-127.7h31.3l73.1,127.7h-30.9l-19.8-35.6H432.9z M678.8,663.9
				l-52.2-45.6v-25.2h40.5c13.9,0,20.9-5.4,20.9-16c0-10.6-7-16-20.9-16h-75.5v102.8h-26.8V536.2h101.4c40.6,0,49.2,22.3,49.2,40.9
				c0,33-26.5,40-48.8,40h-2.7l56.3,46.8L678.8,663.9L678.8,663.9z"/>
			<path id="XMLID_23_" class="st0" d="M915.6,571.3l-51.2,61.6v246.9h654.1V320.5H864.4V597l51-60.8h27v127.7h-26.8V571.3z
				 M1131.2,647.6c-15.1,12.5-37.3,19.1-64.1,19.1c-26.8,0-49.1-6.6-64.1-19.1c-14.2-11.7-21.7-28.2-21.7-47.5
				c0-19.3,7.5-35.7,21.7-47.5c15.1-12.5,37.3-19.1,64.1-19.1c26.8,0,49.1,6.6,64.1,19.1c14.2,11.7,21.7,28.2,21.7,47.5
				C1152.9,619.4,1145.4,635.8,1131.2,647.6z M1305.9,663.9l-52.2-45.6v-25.2h40.5c13.9,0,20.9-5.4,20.9-16c0-10.6-7-16-20.9-16
				h-75.5v102.8h-26.8V536.2h101.4c40.6,0,49.2,22.3,49.2,40.9c0,33-26.5,40-48.8,40h-2.7l56.3,46.8L1305.9,663.9L1305.9,663.9z"/>
			<path id="XMLID_22_" class="st0" d="M1067.1,558.4c-37.2,0-58.5,15.2-58.5,41.7c0,26.4,21.3,41.7,58.5,41.7s58.5-15.2,58.5-41.7
				S1104.3,558.4,1067.1,558.4z"/>
		</g>
	</g>
</g>
</svg>
